<svg xmlns="http://www.w3.org/2000/svg" xmlns:xlink="http://www.w3.org/1999/xlink" width="500" zoomAndPan="magnify" viewBox="0 0 375 374.999991" height="500" preserveAspectRatio="xMidYMid meet" version="1.0"><defs><clipPath id="2ed1c47a54"><path d="M 225 262 L 257 262 L 257 300 L 225 300 Z M 225 262 " clip-rule="nonzero"/></clipPath></defs><rect x="-37.5" width="450" fill="#ffffff" y="-37.499999" height="449.999989" fill-opacity="1"/><rect x="-37.5" width="450" fill="#ffffff" y="-37.499999" height="449.999989" fill-opacity="1"/><path fill="#1e2939" d="M 280.46875 270.257812 C 268.53125 270.257812 257.46875 267.875 248.824219 265.203125 C 232.347656 260.109375 215.957031 251.742188 195.675781 238.058594 C 194.546875 237.292969 194.25 235.765625 195.011719 234.636719 C 195.773438 233.507812 197.304688 233.210938 198.429688 233.972656 C 218.292969 247.375 234.285156 255.554688 250.28125 260.496094 C 264.726562 264.960938 286.242188 268.609375 306.683594 260.636719 C 325.367188 253.347656 338.882812 236.628906 340.308594 219.039062 C 340.996094 210.503906 339.023438 201.75 337.113281 193.285156 C 336.6875 191.382812 336.246094 189.417969 335.835938 187.480469 C 333.765625 177.621094 332.003906 164.886719 336.835938 153.832031 C 336.878906 153.726562 336.933594 153.625 336.992188 153.527344 C 347.378906 136.582031 350.078125 116.855469 344.503906 99.066406 C 330.644531 101.957031 317.507812 107.167969 305.421875 114.582031 C 304.957031 114.863281 304.496094 115.15625 304.03125 115.441406 C 300.796875 117.453125 297.453125 119.535156 293.582031 120.613281 C 285.597656 122.84375 277.675781 120.378906 270.015625 117.992188 C 269.238281 117.75 268.46875 117.511719 267.703125 117.277344 C 250.722656 112.109375 233.132812 110.050781 215.414062 111.152344 C 214.433594 111.210938 213.496094 110.675781 213.054688 109.789062 C 206.734375 97.042969 195.765625 86.535156 182.78125 80.71875 C 177.34375 87.898438 172.628906 95.546875 168.660156 103.53125 C 185.140625 113.597656 198.28125 130.109375 204.007812 149.53125 C 208.117188 163.472656 208.59375 178.886719 205.378906 194.121094 C 202.292969 208.769531 195.902344 222.902344 186.902344 235.007812 C 182.234375 241.28125 177.605469 244.027344 172.738281 243.414062 C 166.496094 242.621094 163.113281 236.550781 161.113281 232.054688 C 150.132812 207.386719 146.074219 179.648438 149.390625 151.835938 C 151.320312 135.597656 155.695312 119.984375 162.289062 105.546875 C 154.898438 101.636719 146.894531 99.09375 138.675781 98.253906 C 123.945312 96.75 107.675781 100.464844 92.847656 108.710938 C 80.125 115.789062 68.195312 126.039062 56.386719 140.046875 C 55.796875 140.738281 55.214844 141.441406 54.628906 142.144531 C 51.359375 146.070312 47.980469 150.132812 43.84375 153.445312 C 38.0625 158.082031 31.597656 160.367188 25.644531 159.871094 C 23.308594 159.675781 21.117188 159.082031 18.996094 158.5 C 17.535156 158.101562 16.15625 157.722656 14.773438 157.488281 C 11.3125 156.886719 8.351562 157.519531 6.835938 159.175781 C 5.351562 160.808594 5.027344 163.480469 4.90625 166.121094 C 3.601562 194.21875 17.554688 222.9375 40.449219 239.277344 C 64.304688 256.296875 99.382812 260.6875 123.867188 249.722656 C 135.632812 244.453125 140.074219 241.441406 143.726562 228.347656 C 145.496094 222.003906 143.664062 214.480469 141.894531 207.210938 C 141.25 204.554688 140.578125 201.8125 140.117188 199.203125 C 134.425781 167.296875 136.210938 143.398438 146.074219 119.292969 C 146.59375 118.03125 148.03125 117.429688 149.289062 117.945312 C 150.546875 118.460938 151.152344 119.902344 150.636719 121.15625 C 141.144531 144.335938 139.449219 167.417969 144.964844 198.335938 C 145.40625 200.796875 146.023438 203.34375 146.679688 206.042969 C 148.597656 213.929688 150.582031 222.089844 148.46875 229.667969 C 144.289062 244.667969 138.667969 248.492188 125.882812 254.21875 C 112.6875 260.125 97.003906 262.074219 80.542969 259.859375 C 64.863281 257.746094 49.605469 251.859375 37.589844 243.28125 C 25.640625 234.757812 15.796875 222.996094 9.136719 209.277344 C 2.46875 195.558594 -0.695312 180.558594 -0.0117188 165.890625 C 0.144531 162.496094 0.648438 158.644531 3.199219 155.851562 C 5.894531 152.90625 10.417969 151.726562 15.613281 152.628906 C 17.234375 152.910156 18.792969 153.335938 20.296875 153.75 C 22.289062 154.292969 24.167969 154.808594 26.050781 154.960938 C 30.742188 155.347656 35.964844 153.445312 40.765625 149.601562 C 44.515625 146.597656 47.59375 142.902344 50.847656 138.992188 C 51.4375 138.28125 52.027344 137.570312 52.625 136.871094 C 64.828125 122.398438 77.203125 111.777344 90.460938 104.40625 C 106.382812 95.550781 123.226562 91.730469 139.179688 93.355469 C 147.960938 94.253906 156.503906 96.957031 164.40625 101.113281 C 168.789062 92.28125 174.023438 83.929688 180.054688 76.1875 C 180.730469 75.3125 181.910156 75 182.929688 75.417969 C 197.257812 81.300781 209.492188 92.449219 216.726562 106.144531 C 234.488281 105.222656 252.113281 107.382812 269.140625 112.566406 C 269.914062 112.800781 270.695312 113.042969 271.480469 113.285156 C 278.460938 115.460938 285.679688 117.707031 292.257812 115.871094 C 295.453125 114.976562 298.359375 113.167969 301.433594 111.257812 C 301.90625 110.964844 302.375 110.671875 302.851562 110.382812 C 316.058594 102.28125 330.472656 96.707031 345.699219 93.804688 C 346.890625 93.578125 348.074219 94.261719 348.476562 95.410156 C 355.394531 115.066406 352.773438 137.125 341.289062 155.949219 C 337.117188 165.632812 338.628906 176.804688 340.65625 186.460938 C 341.0625 188.363281 341.496094 190.3125 341.921875 192.199219 C 343.910156 201.023438 345.96875 210.144531 345.214844 219.429688 C 343.644531 238.863281 328.878906 257.265625 308.476562 265.21875 C 299.089844 268.882812 289.527344 270.253906 280.472656 270.253906 Z M 166.539062 107.988281 C 149.160156 146.132812 148.316406 191.210938 165.609375 230.054688 C 168.023438 235.46875 170.484375 238.164062 173.359375 238.527344 C 176.289062 238.898438 179.433594 236.789062 182.945312 232.066406 C 200.730469 208.164062 206.988281 177.070312 199.28125 150.929688 C 193.949219 132.839844 181.789062 117.441406 166.539062 107.988281 Z M 166.539062 107.988281 " fill-opacity="1" fill-rule="nonzero"/><path fill="#1e2939" d="M 32.148438 144.964844 C 29.9375 144.964844 27.96875 144.113281 26.738281 142.613281 C 25.730469 141.382812 24.726562 139.128906 25.691406 135.378906 C 26.988281 130.359375 30.230469 126.175781 32.910156 123.089844 C 43.128906 111.335938 56.335938 102.527344 71.105469 97.609375 C 80.453125 94.5 94.046875 92.058594 105.726562 98.097656 C 106.9375 98.722656 107.410156 100.207031 106.785156 101.414062 C 106.15625 102.625 104.671875 103.097656 103.464844 102.472656 C 93.308594 97.222656 81.109375 99.46875 72.664062 102.28125 C 58.730469 106.921875 46.269531 115.230469 36.632812 126.320312 C 34.160156 129.160156 31.492188 132.609375 30.460938 136.605469 C 30.125 137.933594 30.152344 139.007812 30.542969 139.484375 C 30.828125 139.835938 31.503906 140.050781 32.222656 140.039062 C 33.207031 140.015625 34.285156 139.664062 35.421875 139.28125 L 56.148438 132.417969 C 57.4375 131.988281 58.835938 132.6875 59.261719 133.980469 C 59.6875 135.273438 58.988281 136.664062 57.695312 137.089844 L 36.972656 143.960938 C 35.597656 144.414062 34.046875 144.929688 32.3125 144.960938 C 32.261719 144.960938 32.207031 144.960938 32.148438 144.960938 Z M 32.148438 144.964844 " fill-opacity="1" fill-rule="nonzero"/><g clip-path="url(#2ed1c47a54)"><path fill="#1e2939" d="M 227.488281 300.027344 C 227.128906 300.027344 226.757812 299.949219 226.414062 299.773438 C 225.1875 299.175781 224.679688 297.703125 225.28125 296.480469 C 231.691406 283.375 241.152344 271.695312 252.648438 262.714844 C 253.71875 261.875 255.269531 262.0625 256.105469 263.136719 C 256.945312 264.210938 256.753906 265.753906 255.679688 266.59375 C 244.773438 275.121094 235.789062 286.207031 229.703125 298.644531 C 229.277344 299.519531 228.402344 300.027344 227.488281 300.027344 Z M 227.488281 300.027344 " fill-opacity="1" fill-rule="nonzero"/></g><path fill="#1e2939" d="M 277 238.582031 C 273.292969 238.582031 269.578125 238.105469 265.980469 237.136719 C 257.707031 234.917969 250.304688 230.179688 244.875 223.683594 C 244.015625 224.3125 243.066406 224.820312 242.058594 225.191406 C 240.777344 225.660156 239.367188 225.007812 238.894531 223.726562 C 238.421875 222.453125 239.078125 221.035156 240.355469 220.566406 C 241.46875 220.15625 242.484375 219.421875 243.226562 218.496094 C 243.707031 217.894531 244.421875 217.558594 245.207031 217.570312 C 245.980469 217.589844 246.695312 217.964844 247.144531 218.585938 C 252.019531 225.304688 259.164062 230.203125 267.253906 232.378906 C 275.253906 234.527344 283.863281 233.957031 291.511719 230.773438 C 292.765625 230.257812 294.210938 230.84375 294.730469 232.105469 C 295.253906 233.359375 294.660156 234.800781 293.402344 235.324219 C 288.203125 237.488281 282.605469 238.582031 277 238.582031 Z M 277 238.582031 " fill-opacity="1" fill-rule="nonzero"/><path fill="#1e2939" d="M 286.105469 224.425781 C 285.488281 224.425781 284.878906 224.199219 284.410156 223.746094 C 281.042969 220.5625 278.617188 216.515625 277.394531 212.046875 C 277.03125 210.71875 276.667969 208.742188 277.75 206.972656 C 278.851562 205.171875 280.925781 204.320312 283.921875 204.453125 C 287.007812 204.585938 290.089844 205.042969 293.089844 205.804688 C 293.996094 206.039062 296.121094 206.585938 297.191406 208.496094 C 298.441406 210.726562 297.378906 213.109375 297.027344 213.894531 C 295.664062 216.953125 293.675781 219.582031 287.53125 223.964844 C 287.101562 224.277344 286.601562 224.425781 286.105469 224.425781 Z M 281.957031 209.5625 C 281.945312 209.644531 281.929688 209.964844 282.144531 210.746094 C 282.953125 213.6875 284.40625 216.398438 286.386719 218.695312 C 290.703125 215.398438 291.773438 213.582031 292.527344 211.886719 C 292.761719 211.363281 292.832031 211.058594 292.847656 210.910156 C 292.714844 210.839844 292.4375 210.726562 291.871094 210.578125 C 289.203125 209.898438 286.453125 209.496094 283.710938 209.378906 C 282.519531 209.328125 282.070312 209.503906 281.949219 209.5625 Z M 281.957031 209.5625 " fill-opacity="1" fill-rule="nonzero"/><path fill="#1e2939" d="M 20.050781 195.804688 C 14.183594 195.804688 8.46875 194.3125 3.644531 191.476562 C 2.46875 190.785156 2.078125 189.273438 2.765625 188.101562 C 3.15625 187.441406 3.804688 187.03125 4.507812 186.917969 C 2.457031 179.984375 2.125 172.640625 3.566406 165.523438 C 4.675781 160.03125 7.011719 156.457031 10.511719 154.894531 C 13.878906 153.394531 17.394531 154.167969 20.496094 154.855469 C 21.09375 154.984375 21.683594 155.117188 22.269531 155.230469 C 30.445312 156.804688 39.261719 154.203125 45.28125 148.445312 C 45.496094 148.238281 45.757812 148.066406 46.039062 147.949219 C 46.105469 147.921875 46.167969 147.898438 46.214844 147.875 C 46.570312 147.539062 47.027344 147.308594 47.535156 147.234375 C 48.628906 147.070312 49.699219 147.648438 50.15625 148.65625 C 55.960938 161.574219 52.769531 177.808594 42.566406 187.257812 C 37.59375 191.867188 30.917969 194.832031 23.78125 195.605469 C 22.535156 195.742188 21.289062 195.804688 20.050781 195.804688 Z M 20.050781 195.804688 " fill-opacity="1" fill-rule="nonzero"/><path fill="#1e2939" d="M 92.515625 292.890625 C 92.417969 292.890625 92.316406 292.882812 92.214844 292.875 C 90.867188 292.710938 89.902344 291.480469 90.066406 290.132812 C 91.261719 280.117188 89.429688 269.632812 84.902344 260.617188 C 84.292969 259.402344 84.785156 257.921875 86 257.3125 C 87.214844 256.703125 88.695312 257.191406 89.304688 258.410156 C 94.265625 268.28125 96.265625 279.753906 94.957031 290.71875 C 94.804688 291.972656 93.742188 292.890625 92.515625 292.890625 Z M 92.515625 292.890625 " fill-opacity="1" fill-rule="nonzero"/><path fill="#1e2939" d="M 371.355469 217.285156 C 371.175781 217.285156 370.996094 217.265625 370.8125 217.226562 C 354.800781 213.648438 338.394531 212.5625 322.050781 213.992188 C 320.695312 214.109375 319.5 213.109375 319.382812 211.753906 C 319.261719 210.402344 320.261719 209.203125 321.621094 209.085938 C 338.46875 207.605469 355.382812 208.726562 371.886719 212.417969 C 373.214844 212.714844 374.050781 214.03125 373.757812 215.359375 C 373.496094 216.503906 372.480469 217.28125 371.355469 217.28125 Z M 371.355469 217.285156 " fill-opacity="1" fill-rule="nonzero"/><path fill="#1e2939" d="M 364.9375 232.640625 C 364.597656 232.640625 364.253906 232.570312 363.921875 232.417969 C 351.796875 226.894531 338.914062 223.503906 325.636719 222.355469 C 324.285156 222.238281 323.28125 221.042969 323.398438 219.6875 C 323.519531 218.332031 324.707031 217.328125 326.066406 217.449219 C 339.902344 218.648438 353.324219 222.175781 365.964844 227.9375 C 367.203125 228.496094 367.746094 229.957031 367.1875 231.195312 C 366.769531 232.105469 365.875 232.640625 364.941406 232.640625 Z M 364.9375 232.640625 " fill-opacity="1" fill-rule="nonzero"/><path fill="#1e2939" d="M 357.472656 250.050781 C 356.917969 250.050781 356.351562 249.859375 355.890625 249.472656 C 345.160156 240.449219 332.253906 234.117188 318.550781 231.15625 C 317.21875 230.871094 316.371094 229.558594 316.664062 228.230469 C 316.949219 226.898438 318.261719 226.054688 319.589844 226.34375 C 334.070312 229.472656 347.722656 236.167969 359.058594 245.703125 C 360.105469 246.578125 360.238281 248.132812 359.363281 249.175781 C 358.875 249.75 358.175781 250.050781 357.472656 250.050781 Z M 357.472656 250.050781 " fill-opacity="1" fill-rule="nonzero"/><path fill="#1e2939" d="M 229.535156 195.039062 C 229.273438 195.039062 229.007812 195 228.746094 194.90625 C 220.863281 192.226562 212.679688 190.382812 204.410156 189.425781 C 203.058594 189.269531 202.089844 188.050781 202.246094 186.699219 C 202.402344 185.347656 203.625 184.375 204.972656 184.53125 C 213.585938 185.527344 222.121094 187.449219 230.332031 190.246094 C 231.617188 190.679688 232.304688 192.082031 231.867188 193.367188 C 231.519531 194.394531 230.558594 195.039062 229.539062 195.039062 Z M 229.535156 195.039062 " fill-opacity="1" fill-rule="nonzero"/><path fill="#1e2939" d="M 228.441406 206.4375 C 228.203125 206.4375 227.957031 206.398438 227.714844 206.324219 C 219.480469 203.78125 210.933594 202.335938 202.316406 202.035156 C 200.957031 201.988281 199.894531 200.847656 199.945312 199.488281 C 199.992188 198.125 201.144531 197.058594 202.492188 197.109375 C 211.539062 197.429688 220.515625 198.941406 229.167969 201.617188 C 230.46875 202.015625 231.199219 203.398438 230.792969 204.695312 C 230.46875 205.753906 229.496094 206.429688 228.441406 206.429688 Z M 228.441406 206.4375 " fill-opacity="1" fill-rule="nonzero"/><path fill="#1e2939" d="M 197.511719 214.902344 C 196.371094 214.902344 195.351562 214.113281 195.105469 212.957031 C 194.820312 211.625 195.667969 210.316406 196.996094 210.03125 C 206.027344 208.09375 215.234375 207.847656 224.355469 209.296875 C 225.699219 209.511719 226.613281 210.769531 226.398438 212.113281 C 226.191406 213.457031 224.921875 214.378906 223.582031 214.160156 C 215.0625 212.8125 206.464844 213.042969 198.03125 214.847656 C 197.855469 214.886719 197.679688 214.902344 197.511719 214.902344 Z M 197.511719 214.902344 " fill-opacity="1" fill-rule="nonzero"/><path fill="#1e2939" d="M 91.75 139.847656 C 92.109375 139.914062 92.457031 140.011719 92.800781 140.152344 C 93.144531 140.285156 93.480469 140.453125 93.800781 140.65625 C 94.128906 140.855469 94.4375 141.09375 94.746094 141.359375 C 95.046875 141.632812 95.339844 141.929688 95.617188 142.261719 C 95.898438 142.59375 96.167969 142.953125 96.421875 143.347656 C 96.671875 143.738281 96.914062 144.15625 97.132812 144.605469 C 97.359375 145.054688 97.566406 145.527344 97.761719 146.027344 C 97.953125 146.527344 98.132812 147.050781 98.289062 147.597656 C 98.449219 148.144531 98.589844 148.714844 98.714844 149.296875 C 98.84375 149.886719 98.949219 150.496094 99.039062 151.117188 C 99.132812 151.742188 99.199219 152.386719 99.253906 153.039062 C 99.308594 153.691406 99.34375 154.363281 99.359375 155.039062 C 99.375 155.71875 99.371094 156.40625 99.351562 157.101562 C 99.328125 157.796875 99.289062 158.5 99.230469 159.207031 C 99.171875 159.910156 99.097656 160.621094 99 161.332031 C 98.90625 162.042969 98.792969 162.753906 98.660156 163.457031 C 98.53125 164.164062 98.382812 164.867188 98.214844 165.566406 C 98.050781 166.261719 97.867188 166.953125 97.671875 167.632812 C 97.472656 168.3125 97.257812 168.984375 97.035156 169.640625 C 96.804688 170.296875 96.5625 170.941406 96.304688 171.570312 C 96.046875 172.199219 95.773438 172.808594 95.492188 173.402344 C 95.210938 173.996094 94.914062 174.5625 94.605469 175.117188 C 94.296875 175.667969 93.984375 176.199219 93.65625 176.703125 C 93.324219 177.207031 92.992188 177.6875 92.648438 178.140625 C 92.300781 178.589844 91.949219 179.019531 91.589844 179.414062 C 91.230469 179.8125 90.867188 180.179688 90.496094 180.519531 C 90.128906 180.859375 89.753906 181.167969 89.378906 181.441406 C 89.003906 181.714844 88.625 181.957031 88.246094 182.167969 C 87.867188 182.375 87.484375 182.554688 87.105469 182.695312 C 86.726562 182.835938 86.347656 182.945312 85.972656 183.019531 C 85.597656 183.089844 85.226562 183.132812 84.859375 183.136719 C 84.488281 183.140625 84.128906 183.105469 83.769531 183.042969 C 83.414062 182.972656 83.0625 182.871094 82.71875 182.738281 C 82.378906 182.601562 82.046875 182.4375 81.71875 182.230469 C 81.398438 182.03125 81.082031 181.796875 80.777344 181.523438 C 80.472656 181.257812 80.183594 180.957031 79.902344 180.625 C 79.621094 180.292969 79.355469 179.929688 79.105469 179.539062 C 78.851562 179.148438 78.613281 178.730469 78.386719 178.28125 C 78.164062 177.832031 77.953125 177.359375 77.761719 176.859375 C 77.566406 176.359375 77.390625 175.839844 77.230469 175.289062 C 77.070312 174.746094 76.929688 174.175781 76.804688 173.585938 C 76.679688 173 76.570312 172.394531 76.480469 171.769531 C 76.394531 171.140625 76.320312 170.503906 76.269531 169.847656 C 76.214844 169.191406 76.179688 168.527344 76.164062 167.847656 C 76.148438 167.167969 76.152344 166.480469 76.171875 165.789062 C 76.195312 165.089844 76.230469 164.386719 76.292969 163.679688 C 76.347656 162.972656 76.429688 162.269531 76.523438 161.558594 C 76.617188 160.84375 76.730469 160.136719 76.859375 159.429688 C 76.988281 158.722656 77.140625 158.019531 77.304688 157.320312 C 77.46875 156.625 77.652344 155.9375 77.847656 155.253906 C 78.046875 154.574219 78.261719 153.902344 78.488281 153.246094 C 78.71875 152.585938 78.960938 151.945312 79.21875 151.316406 C 79.476562 150.691406 79.746094 150.082031 80.027344 149.488281 C 80.3125 148.894531 80.609375 148.320312 80.917969 147.769531 C 81.222656 147.21875 81.539062 146.691406 81.867188 146.1875 C 82.195312 145.683594 82.53125 145.203125 82.875 144.746094 C 83.21875 144.292969 83.570312 143.871094 83.929688 143.472656 C 84.289062 143.070312 84.652344 142.703125 85.023438 142.367188 C 85.390625 142.03125 85.765625 141.722656 86.140625 141.449219 C 86.515625 141.171875 86.898438 140.929688 87.277344 140.71875 C 87.65625 140.507812 88.035156 140.335938 88.414062 140.191406 C 88.792969 140.050781 89.171875 139.941406 89.546875 139.867188 C 89.921875 139.796875 90.292969 139.757812 90.664062 139.753906 C 91.03125 139.75 91.394531 139.785156 91.75 139.847656 Z M 91.75 139.847656 " fill-opacity="1" fill-rule="nonzero"/><path fill="#f5f5f5" d="M 90.875 145.941406 C 91.152344 145.996094 91.421875 146.089844 91.679688 146.214844 C 91.9375 146.339844 92.179688 146.5 92.410156 146.691406 C 92.636719 146.882812 92.84375 147.097656 93.035156 147.347656 C 93.222656 147.601562 93.390625 147.871094 93.535156 148.167969 C 93.679688 148.464844 93.796875 148.777344 93.890625 149.113281 C 93.988281 149.445312 94.050781 149.789062 94.089844 150.144531 C 94.128906 150.503906 94.136719 150.863281 94.121094 151.230469 C 94.105469 151.597656 94.054688 151.964844 93.984375 152.328125 C 93.910156 152.691406 93.808594 153.046875 93.683594 153.390625 C 93.558594 153.738281 93.40625 154.070312 93.234375 154.382812 C 93.058594 154.695312 92.863281 154.988281 92.652344 155.257812 C 92.433594 155.527344 92.203125 155.777344 91.957031 155.992188 C 91.707031 156.207031 91.449219 156.398438 91.175781 156.550781 C 90.902344 156.703125 90.625 156.824219 90.34375 156.914062 C 90.054688 157.003906 89.773438 157.054688 89.488281 157.066406 C 89.199219 157.082031 88.917969 157.0625 88.640625 157.011719 C 88.363281 156.953125 88.09375 156.859375 87.835938 156.734375 C 87.578125 156.609375 87.335938 156.453125 87.105469 156.257812 C 86.878906 156.070312 86.671875 155.851562 86.480469 155.601562 C 86.292969 155.351562 86.121094 155.082031 85.980469 154.78125 C 85.835938 154.488281 85.714844 154.171875 85.621094 153.839844 C 85.527344 153.507812 85.464844 153.160156 85.429688 152.804688 C 85.386719 152.445312 85.375 152.082031 85.394531 151.714844 C 85.410156 151.347656 85.460938 150.984375 85.53125 150.621094 C 85.605469 150.257812 85.707031 149.902344 85.832031 149.5625 C 85.957031 149.214844 86.105469 148.882812 86.28125 148.566406 C 86.457031 148.253906 86.652344 147.964844 86.863281 147.691406 C 87.078125 147.421875 87.3125 147.175781 87.558594 146.957031 C 87.808594 146.746094 88.066406 146.554688 88.335938 146.402344 C 88.613281 146.242188 88.890625 146.121094 89.171875 146.039062 C 89.460938 145.949219 89.742188 145.898438 90.027344 145.878906 C 90.316406 145.867188 90.597656 145.882812 90.875 145.941406 Z M 90.875 145.941406 " fill-opacity="1" fill-rule="nonzero"/><path fill="#1e2939" d="M 246.472656 154.742188 C 247.1875 154.875 247.878906 155.09375 248.546875 155.402344 C 249.214844 155.714844 249.851562 156.109375 250.441406 156.585938 C 251.039062 157.0625 251.589844 157.617188 252.089844 158.242188 C 252.585938 158.867188 253.03125 159.550781 253.414062 160.304688 C 253.800781 161.054688 254.117188 161.847656 254.375 162.691406 C 254.632812 163.539062 254.8125 164.414062 254.929688 165.324219 C 255.046875 166.226562 255.089844 167.152344 255.058594 168.085938 C 255.03125 169.019531 254.933594 169.953125 254.761719 170.878906 C 254.589844 171.808594 254.347656 172.710938 254.042969 173.59375 C 253.734375 174.480469 253.363281 175.328125 252.933594 176.128906 C 252.5 176.9375 252.011719 177.691406 251.476562 178.386719 C 250.933594 179.082031 250.351562 179.714844 249.722656 180.277344 C 249.09375 180.839844 248.4375 181.324219 247.746094 181.726562 C 247.058594 182.132812 246.347656 182.453125 245.621094 182.683594 C 244.894531 182.917969 244.164062 183.058594 243.429688 183.109375 C 242.691406 183.164062 241.96875 183.125 241.25 182.988281 C 240.535156 182.855469 239.84375 182.636719 239.175781 182.324219 C 238.507812 182.011719 237.871094 181.621094 237.28125 181.140625 C 236.683594 180.664062 236.136719 180.117188 235.636719 179.492188 C 235.136719 178.867188 234.691406 178.175781 234.308594 177.429688 C 233.921875 176.679688 233.601562 175.882812 233.347656 175.035156 C 233.09375 174.191406 232.910156 173.316406 232.792969 172.410156 C 232.675781 171.5 232.632812 170.582031 232.664062 169.644531 C 232.691406 168.707031 232.792969 167.78125 232.960938 166.851562 C 233.132812 165.925781 233.375 165.015625 233.679688 164.132812 C 233.988281 163.25 234.359375 162.40625 234.789062 161.597656 C 235.222656 160.796875 235.710938 160.039062 236.25 159.34375 C 236.789062 158.644531 237.371094 158.015625 238 157.453125 C 238.628906 156.894531 239.285156 156.410156 239.976562 156 C 240.664062 155.597656 241.375 155.277344 242.101562 155.046875 C 242.828125 154.816406 243.558594 154.667969 244.296875 154.621094 C 245.03125 154.570312 245.757812 154.609375 246.472656 154.742188 Z M 246.472656 154.742188 " fill-opacity="1" fill-rule="nonzero"/><path fill="#f5f5f5" d="M 245.601562 160.839844 C 245.875 160.890625 246.144531 160.984375 246.402344 161.109375 C 246.65625 161.234375 246.902344 161.398438 247.128906 161.585938 C 247.359375 161.777344 247.570312 161.996094 247.757812 162.246094 C 247.949219 162.496094 248.113281 162.765625 248.257812 163.0625 C 248.40625 163.359375 248.523438 163.671875 248.613281 164.007812 C 248.707031 164.339844 248.773438 164.6875 248.8125 165.039062 C 248.851562 165.398438 248.859375 165.761719 248.84375 166.128906 C 248.824219 166.496094 248.78125 166.859375 248.707031 167.222656 C 248.636719 167.585938 248.535156 167.941406 248.410156 168.289062 C 248.28125 168.632812 248.128906 168.964844 247.957031 169.277344 C 247.785156 169.59375 247.589844 169.882812 247.371094 170.152344 C 247.15625 170.425781 246.929688 170.671875 246.679688 170.886719 C 246.433594 171.105469 246.167969 171.292969 245.898438 171.445312 C 245.628906 171.601562 245.351562 171.722656 245.0625 171.808594 C 244.78125 171.898438 244.496094 171.949219 244.207031 171.964844 C 243.921875 171.980469 243.640625 171.960938 243.363281 171.90625 C 243.085938 171.847656 242.820312 171.753906 242.5625 171.628906 C 242.304688 171.503906 242.0625 171.347656 241.832031 171.152344 C 241.601562 170.964844 241.394531 170.746094 241.207031 170.496094 C 241.015625 170.25 240.847656 169.976562 240.703125 169.679688 C 240.558594 169.382812 240.4375 169.066406 240.347656 168.738281 C 240.253906 168.402344 240.1875 168.054688 240.148438 167.699219 C 240.113281 167.339844 240.101562 166.980469 240.121094 166.613281 C 240.136719 166.246094 240.179688 165.878906 240.253906 165.515625 C 240.332031 165.152344 240.425781 164.796875 240.554688 164.457031 C 240.679688 164.109375 240.832031 163.777344 241.003906 163.46875 C 241.175781 163.152344 241.371094 162.859375 241.589844 162.585938 C 241.804688 162.316406 242.039062 162.070312 242.285156 161.855469 C 242.53125 161.640625 242.792969 161.453125 243.0625 161.296875 C 243.332031 161.140625 243.609375 161.019531 243.898438 160.933594 C 244.179688 160.84375 244.464844 160.796875 244.753906 160.78125 C 245.039062 160.761719 245.320312 160.785156 245.601562 160.839844 Z M 245.601562 160.839844 " fill-opacity="1" fill-rule="nonzero"/><path fill="#1e2939" d="M 313.238281 169.011719 C 313.957031 169.144531 314.644531 169.367188 315.316406 169.675781 C 315.984375 169.988281 316.613281 170.378906 317.210938 170.855469 C 317.804688 171.335938 318.355469 171.882812 318.855469 172.511719 C 319.355469 173.136719 319.792969 173.820312 320.183594 174.570312 C 320.566406 175.324219 320.882812 176.117188 321.144531 176.964844 C 321.398438 177.808594 321.582031 178.683594 321.699219 179.59375 C 321.8125 180.5 321.855469 181.421875 321.828125 182.355469 C 321.800781 183.292969 321.699219 184.222656 321.53125 185.148438 C 321.355469 186.078125 321.117188 186.980469 320.8125 187.863281 C 320.5 188.75 320.132812 189.597656 319.699219 190.402344 C 319.265625 191.207031 318.78125 191.960938 318.242188 192.660156 C 317.699219 193.351562 317.121094 193.988281 316.488281 194.546875 C 315.863281 195.109375 315.203125 195.59375 314.511719 196 C 313.824219 196.402344 313.117188 196.722656 312.390625 196.957031 C 311.664062 197.1875 310.929688 197.332031 310.195312 197.378906 C 309.460938 197.433594 308.734375 197.390625 308.019531 197.257812 C 307.300781 197.125 306.609375 196.902344 305.941406 196.59375 C 305.277344 196.28125 304.640625 195.890625 304.042969 195.414062 C 303.453125 194.933594 302.902344 194.386719 302.402344 193.761719 C 301.902344 193.136719 301.460938 192.449219 301.074219 191.699219 C 300.691406 190.949219 300.371094 190.152344 300.113281 189.308594 C 299.859375 188.460938 299.675781 187.585938 299.5625 186.679688 C 299.445312 185.769531 299.398438 184.851562 299.429688 183.914062 C 299.457031 182.980469 299.558594 182.050781 299.726562 181.121094 C 299.902344 180.195312 300.136719 179.289062 300.449219 178.40625 C 300.757812 177.523438 301.125 176.675781 301.558594 175.867188 C 301.992188 175.066406 302.476562 174.308594 303.015625 173.613281 C 303.554688 172.917969 304.136719 172.289062 304.765625 171.722656 C 305.394531 171.164062 306.054688 170.679688 306.746094 170.273438 C 307.433594 169.867188 308.140625 169.546875 308.867188 169.3125 C 309.597656 169.085938 310.328125 168.941406 311.0625 168.890625 C 311.796875 168.839844 312.523438 168.878906 313.238281 169.011719 Z M 313.238281 169.011719 " fill-opacity="1" fill-rule="nonzero"/><path fill="#f5f5f5" d="M 312.363281 175.105469 C 312.640625 175.160156 312.90625 175.253906 313.164062 175.378906 C 313.421875 175.503906 313.664062 175.660156 313.894531 175.855469 C 314.121094 176.046875 314.332031 176.261719 314.519531 176.511719 C 314.710938 176.761719 314.878906 177.035156 315.023438 177.332031 C 315.167969 177.628906 315.289062 177.941406 315.378906 178.277344 C 315.472656 178.609375 315.539062 178.953125 315.578125 179.308594 C 315.613281 179.667969 315.625 180.027344 315.605469 180.394531 C 315.589844 180.761719 315.546875 181.128906 315.46875 181.492188 C 315.394531 181.855469 315.300781 182.210938 315.171875 182.554688 C 315.046875 182.902344 314.894531 183.230469 314.722656 183.546875 C 314.550781 183.859375 314.351562 184.152344 314.136719 184.421875 C 313.921875 184.691406 313.6875 184.9375 313.441406 185.15625 C 313.191406 185.371094 312.933594 185.5625 312.664062 185.714844 C 312.394531 185.871094 312.117188 185.992188 311.828125 186.078125 C 311.546875 186.164062 311.261719 186.21875 310.972656 186.234375 C 310.6875 186.246094 310.40625 186.226562 310.125 186.175781 C 309.851562 186.117188 309.582031 186.023438 309.324219 185.898438 C 309.070312 185.773438 308.824219 185.617188 308.597656 185.421875 C 308.367188 185.234375 308.15625 185.015625 307.96875 184.765625 C 307.777344 184.515625 307.613281 184.246094 307.46875 183.945312 C 307.320312 183.652344 307.203125 183.335938 307.113281 183.003906 C 307.019531 182.671875 306.949219 182.324219 306.914062 181.96875 C 306.875 181.609375 306.867188 181.25 306.882812 180.882812 C 306.902344 180.515625 306.945312 180.148438 307.019531 179.785156 C 307.089844 179.421875 307.191406 179.066406 307.316406 178.726562 C 307.445312 178.378906 307.597656 178.046875 307.769531 177.730469 C 307.941406 177.421875 308.136719 177.125 308.355469 176.855469 C 308.570312 176.585938 308.796875 176.339844 309.046875 176.121094 C 309.292969 175.90625 309.558594 175.71875 309.828125 175.566406 C 310.097656 175.410156 310.375 175.285156 310.660156 175.203125 C 310.945312 175.113281 311.230469 175.058594 311.519531 175.046875 C 311.804688 175.03125 312.085938 175.050781 312.363281 175.105469 Z M 312.363281 175.105469 " fill-opacity="1" fill-rule="nonzero"/></svg>